<?xml version="1.0" encoding="utf-8"?>
<!-- Generator: Adobe Illustrator 16.0.0, SVG Export Plug-In . SVG Version: 6.00 Build 0)  -->
<!DOCTYPE svg PUBLIC "-//W3C//DTD SVG 1.1//EN" "http://www.w3.org/Graphics/SVG/1.1/DTD/svg11.dtd">
<svg version="1.1" id="Calque_1" xmlns="http://www.w3.org/2000/svg" xmlns:xlink="http://www.w3.org/1999/xlink" x="0px" y="0px"
	 width="299.99px" height="300px" viewBox="0 0 299.99 300" enable-background="new 0 0 299.99 300" xml:space="preserve">
<g>
	<g>
		<path fill="#034EA2" d="M267.464,290.879c0,5.037-4.084,9.121-9.119,9.121H41.818c-5.037,0-9.12-4.084-9.12-9.121L32.526,9.121
			c0-5.036,4.083-9.12,9.12-9.12h129.361l96.285,96.142L267.464,290.879z"/>
		<path fill="#00377B" d="M171.007,87.166c0,5.037,4.084,9.12,9.121,9.12h87.164C251.844,80.837,179.741,8.734,171.007,0V87.166z"/>
	</g>
	<g>
		
			<line fill="none" stroke="#FFFFFF" stroke-width="4.1597" stroke-linecap="round" stroke-miterlimit="10" x1="84.891" y1="120.207" x2="216.432" y2="120.207"/>
		
			<line fill="none" stroke="#FFFFFF" stroke-width="4.1597" stroke-linecap="round" stroke-miterlimit="10" x1="84.891" y1="140.484" x2="216.432" y2="140.484"/>
		
			<line fill="none" stroke="#FFFFFF" stroke-width="4.1597" stroke-linecap="round" stroke-miterlimit="10" x1="84.891" y1="160.762" x2="216.432" y2="160.762"/>
		
			<line fill="none" stroke="#FFFFFF" stroke-width="4.1597" stroke-linecap="round" stroke-miterlimit="10" x1="84.891" y1="181.039" x2="216.432" y2="181.039"/>
		
			<line fill="none" stroke="#FFFFFF" stroke-width="4.1597" stroke-linecap="round" stroke-miterlimit="10" x1="84.891" y1="201.316" x2="216.432" y2="201.316"/>
	</g>
</g>
</svg>
